<mxfile host="app.diagrams.net" agent="Mozilla/5.0 (Windows NT 10.0; Win64; x64) AppleWebKit/537.36 (KHTML, like Gecko) Chrome/127.0.0.0 Safari/537.36" version="24.7.5">
  <diagram name="Page-1" id="ne1yVrpApeGR5NnuMx8B">
    <mxGraphModel dx="-397" dy="-515" grid="1" gridSize="10" guides="1" tooltips="1" connect="1" arrows="1" fold="1" page="1" pageScale="1" pageWidth="100" pageHeight="200" math="0" shadow="0">
      <root>
        <object label="" id="0">
          <mxCell />
        </object>
        <mxCell id="1" parent="0" />
        <mxCell id="ETMJN2ck25rzcetpwq2Y-59" value="" style="rounded=0;whiteSpace=wrap;html=1;fontFamily=Verdana;fillColor=#f5f5f5;strokeColor=#666666;fontColor=#333333;" vertex="1" parent="1">
          <mxGeometry x="1935" y="1880" width="1355" height="1080" as="geometry" />
        </mxCell>
        <mxCell id="ETMJN2ck25rzcetpwq2Y-14" style="edgeStyle=orthogonalEdgeStyle;rounded=0;orthogonalLoop=1;jettySize=auto;html=1;fontFamily=Verdana;" edge="1" parent="1" source="ETMJN2ck25rzcetpwq2Y-1" target="ETMJN2ck25rzcetpwq2Y-10">
          <mxGeometry relative="1" as="geometry" />
        </mxCell>
        <mxCell id="ETMJN2ck25rzcetpwq2Y-34" style="edgeStyle=orthogonalEdgeStyle;rounded=0;orthogonalLoop=1;jettySize=auto;html=1;exitX=0;exitY=0.5;exitDx=0;exitDy=0;fontFamily=Verdana;" edge="1" parent="1" source="ETMJN2ck25rzcetpwq2Y-1" target="ETMJN2ck25rzcetpwq2Y-31">
          <mxGeometry relative="1" as="geometry" />
        </mxCell>
        <mxCell id="ETMJN2ck25rzcetpwq2Y-56" style="edgeStyle=orthogonalEdgeStyle;rounded=0;orthogonalLoop=1;jettySize=auto;html=1;exitX=0.75;exitY=1;exitDx=0;exitDy=0;fontFamily=Verdana;" edge="1" parent="1" source="ETMJN2ck25rzcetpwq2Y-1" target="ETMJN2ck25rzcetpwq2Y-18">
          <mxGeometry relative="1" as="geometry" />
        </mxCell>
        <mxCell id="ETMJN2ck25rzcetpwq2Y-57" style="edgeStyle=orthogonalEdgeStyle;rounded=0;orthogonalLoop=1;jettySize=auto;html=1;exitX=0.25;exitY=1;exitDx=0;exitDy=0;entryX=0.5;entryY=0;entryDx=0;entryDy=0;fontFamily=Verdana;" edge="1" parent="1" source="ETMJN2ck25rzcetpwq2Y-1" target="ETMJN2ck25rzcetpwq2Y-25">
          <mxGeometry relative="1" as="geometry" />
        </mxCell>
        <mxCell id="ETMJN2ck25rzcetpwq2Y-64" style="edgeStyle=orthogonalEdgeStyle;rounded=0;orthogonalLoop=1;jettySize=auto;html=1;exitX=0.25;exitY=0;exitDx=0;exitDy=0;entryX=0.5;entryY=1;entryDx=0;entryDy=0;" edge="1" parent="1" source="ETMJN2ck25rzcetpwq2Y-1" target="ETMJN2ck25rzcetpwq2Y-41">
          <mxGeometry relative="1" as="geometry" />
        </mxCell>
        <mxCell id="ETMJN2ck25rzcetpwq2Y-65" style="edgeStyle=orthogonalEdgeStyle;rounded=0;orthogonalLoop=1;jettySize=auto;html=1;exitX=0.5;exitY=0;exitDx=0;exitDy=0;entryX=0.5;entryY=1;entryDx=0;entryDy=0;" edge="1" parent="1" source="ETMJN2ck25rzcetpwq2Y-1" target="ETMJN2ck25rzcetpwq2Y-63">
          <mxGeometry relative="1" as="geometry" />
        </mxCell>
        <mxCell id="ETMJN2ck25rzcetpwq2Y-1" value="Role of&amp;nbsp;Cloud Computing Enhancing Privacy Compliance" style="rounded=1;whiteSpace=wrap;html=1;fontSize=14;fillColor=#dae8fc;strokeColor=#6c8ebf;fontFamily=Verdana;" vertex="1" parent="1">
          <mxGeometry x="2500" y="2400" width="190" height="100" as="geometry" />
        </mxCell>
        <mxCell id="ETMJN2ck25rzcetpwq2Y-71" style="edgeStyle=orthogonalEdgeStyle;rounded=0;orthogonalLoop=1;jettySize=auto;html=1;exitX=0.5;exitY=0;exitDx=0;exitDy=0;entryX=0.5;entryY=1;entryDx=0;entryDy=0;" edge="1" parent="1" source="ETMJN2ck25rzcetpwq2Y-2" target="ETMJN2ck25rzcetpwq2Y-4">
          <mxGeometry relative="1" as="geometry" />
        </mxCell>
        <mxCell id="ETMJN2ck25rzcetpwq2Y-74" style="edgeStyle=orthogonalEdgeStyle;rounded=0;orthogonalLoop=1;jettySize=auto;html=1;exitX=1;exitY=0;exitDx=0;exitDy=0;entryX=0.5;entryY=1;entryDx=0;entryDy=0;" edge="1" parent="1" source="ETMJN2ck25rzcetpwq2Y-2" target="ETMJN2ck25rzcetpwq2Y-5">
          <mxGeometry relative="1" as="geometry">
            <Array as="points">
              <mxPoint x="2841" y="2210" />
              <mxPoint x="3005" y="2210" />
            </Array>
          </mxGeometry>
        </mxCell>
        <mxCell id="ETMJN2ck25rzcetpwq2Y-75" style="edgeStyle=orthogonalEdgeStyle;rounded=0;orthogonalLoop=1;jettySize=auto;html=1;exitX=1;exitY=0.5;exitDx=0;exitDy=0;" edge="1" parent="1" source="ETMJN2ck25rzcetpwq2Y-2" target="ETMJN2ck25rzcetpwq2Y-8">
          <mxGeometry relative="1" as="geometry" />
        </mxCell>
        <mxCell id="ETMJN2ck25rzcetpwq2Y-2" value="Introduction" style="ellipse;whiteSpace=wrap;html=1;fillColor=#ffe6cc;strokeColor=#d79b00;fontFamily=Verdana;" vertex="1" parent="1">
          <mxGeometry x="2730" y="2240" width="130" height="70" as="geometry" />
        </mxCell>
        <mxCell id="ETMJN2ck25rzcetpwq2Y-4" value="Definition of Cloud Computing" style="ellipse;whiteSpace=wrap;html=1;fontFamily=Verdana;" vertex="1" parent="1">
          <mxGeometry x="2740" y="2060" width="140" height="80" as="geometry" />
        </mxCell>
        <mxCell id="ETMJN2ck25rzcetpwq2Y-5" value="Importance in modern business" style="ellipse;whiteSpace=wrap;html=1;fontFamily=Verdana;" vertex="1" parent="1">
          <mxGeometry x="2940" y="2080" width="130" height="70" as="geometry" />
        </mxCell>
        <mxCell id="ETMJN2ck25rzcetpwq2Y-8" value="Importance of&lt;span style=&quot;background-color: initial;&quot;&gt;&amp;nbsp;Privacy&lt;/span&gt;" style="ellipse;whiteSpace=wrap;html=1;fontFamily=Verdana;" vertex="1" parent="1">
          <mxGeometry x="2970" y="2240" width="100" height="70" as="geometry" />
        </mxCell>
        <mxCell id="ETMJN2ck25rzcetpwq2Y-17" style="edgeStyle=orthogonalEdgeStyle;rounded=0;orthogonalLoop=1;jettySize=auto;html=1;exitX=0.5;exitY=1;exitDx=0;exitDy=0;entryX=0;entryY=0.5;entryDx=0;entryDy=0;fontFamily=Verdana;" edge="1" parent="1" source="ETMJN2ck25rzcetpwq2Y-10" target="ETMJN2ck25rzcetpwq2Y-13">
          <mxGeometry relative="1" as="geometry" />
        </mxCell>
        <mxCell id="ETMJN2ck25rzcetpwq2Y-76" style="edgeStyle=orthogonalEdgeStyle;rounded=0;orthogonalLoop=1;jettySize=auto;html=1;exitX=0.5;exitY=0;exitDx=0;exitDy=0;" edge="1" parent="1" source="ETMJN2ck25rzcetpwq2Y-10" target="ETMJN2ck25rzcetpwq2Y-11">
          <mxGeometry relative="1" as="geometry" />
        </mxCell>
        <mxCell id="ETMJN2ck25rzcetpwq2Y-77" style="edgeStyle=orthogonalEdgeStyle;rounded=0;orthogonalLoop=1;jettySize=auto;html=1;exitX=1;exitY=0.5;exitDx=0;exitDy=0;entryX=0;entryY=0.5;entryDx=0;entryDy=0;" edge="1" parent="1" source="ETMJN2ck25rzcetpwq2Y-10" target="ETMJN2ck25rzcetpwq2Y-12">
          <mxGeometry relative="1" as="geometry">
            <Array as="points">
              <mxPoint x="3000" y="2430" />
              <mxPoint x="3000" y="2485" />
            </Array>
          </mxGeometry>
        </mxCell>
        <mxCell id="ETMJN2ck25rzcetpwq2Y-10" value="Types of Cloud Computing" style="ellipse;whiteSpace=wrap;html=1;fillColor=#ffe6cc;strokeColor=#d79b00;fontFamily=Verdana;" vertex="1" parent="1">
          <mxGeometry x="2830" y="2395" width="130" height="70" as="geometry" />
        </mxCell>
        <mxCell id="ETMJN2ck25rzcetpwq2Y-11" value="SaaS" style="ellipse;whiteSpace=wrap;html=1;fontFamily=Verdana;" vertex="1" parent="1">
          <mxGeometry x="3070" y="2340" width="100" height="70" as="geometry" />
        </mxCell>
        <mxCell id="ETMJN2ck25rzcetpwq2Y-12" value="PaaS" style="ellipse;whiteSpace=wrap;html=1;fontFamily=Verdana;" vertex="1" parent="1">
          <mxGeometry x="3080" y="2450" width="100" height="70" as="geometry" />
        </mxCell>
        <mxCell id="ETMJN2ck25rzcetpwq2Y-13" value="IaaS" style="ellipse;whiteSpace=wrap;html=1;fontFamily=Verdana;" vertex="1" parent="1">
          <mxGeometry x="3010" y="2550" width="100" height="70" as="geometry" />
        </mxCell>
        <mxCell id="ETMJN2ck25rzcetpwq2Y-49" style="edgeStyle=orthogonalEdgeStyle;rounded=0;orthogonalLoop=1;jettySize=auto;html=1;exitX=0.5;exitY=1;exitDx=0;exitDy=0;entryX=0;entryY=0.5;entryDx=0;entryDy=0;fontFamily=Verdana;" edge="1" parent="1" source="ETMJN2ck25rzcetpwq2Y-18" target="ETMJN2ck25rzcetpwq2Y-22">
          <mxGeometry relative="1" as="geometry" />
        </mxCell>
        <mxCell id="ETMJN2ck25rzcetpwq2Y-58" style="edgeStyle=orthogonalEdgeStyle;rounded=0;orthogonalLoop=1;jettySize=auto;html=1;exitX=1;exitY=0.5;exitDx=0;exitDy=0;entryX=0;entryY=0.5;entryDx=0;entryDy=0;fontFamily=Verdana;" edge="1" parent="1" source="ETMJN2ck25rzcetpwq2Y-18" target="ETMJN2ck25rzcetpwq2Y-21">
          <mxGeometry relative="1" as="geometry" />
        </mxCell>
        <mxCell id="ETMJN2ck25rzcetpwq2Y-18" value="Key Privacy Compliance Regulations" style="ellipse;whiteSpace=wrap;html=1;fillColor=#ffe6cc;strokeColor=#d79b00;fontFamily=Verdana;" vertex="1" parent="1">
          <mxGeometry x="2640" y="2630" width="130" height="70" as="geometry" />
        </mxCell>
        <mxCell id="ETMJN2ck25rzcetpwq2Y-21" value="PIPEDA" style="ellipse;whiteSpace=wrap;html=1;fontFamily=Verdana;" vertex="1" parent="1">
          <mxGeometry x="2840" y="2630" width="100" height="70" as="geometry" />
        </mxCell>
        <mxCell id="ETMJN2ck25rzcetpwq2Y-22" value="PCI DSS" style="ellipse;whiteSpace=wrap;html=1;fontFamily=Verdana;" vertex="1" parent="1">
          <mxGeometry x="2810" y="2770" width="100" height="70" as="geometry" />
        </mxCell>
        <mxCell id="ETMJN2ck25rzcetpwq2Y-50" style="edgeStyle=orthogonalEdgeStyle;rounded=0;orthogonalLoop=1;jettySize=auto;html=1;exitX=1;exitY=1;exitDx=0;exitDy=0;entryX=0.5;entryY=0;entryDx=0;entryDy=0;fontFamily=Verdana;" edge="1" parent="1" source="ETMJN2ck25rzcetpwq2Y-25" target="ETMJN2ck25rzcetpwq2Y-27">
          <mxGeometry relative="1" as="geometry" />
        </mxCell>
        <mxCell id="ETMJN2ck25rzcetpwq2Y-52" style="edgeStyle=orthogonalEdgeStyle;rounded=0;orthogonalLoop=1;jettySize=auto;html=1;exitX=0;exitY=1;exitDx=0;exitDy=0;entryX=0.5;entryY=0;entryDx=0;entryDy=0;fontFamily=Verdana;" edge="1" parent="1" source="ETMJN2ck25rzcetpwq2Y-25" target="ETMJN2ck25rzcetpwq2Y-28">
          <mxGeometry relative="1" as="geometry">
            <Array as="points">
              <mxPoint x="2383" y="2710" />
              <mxPoint x="2300" y="2710" />
            </Array>
          </mxGeometry>
        </mxCell>
        <mxCell id="ETMJN2ck25rzcetpwq2Y-25" value="Cloud Service Provider and Privacy Compliance" style="ellipse;whiteSpace=wrap;html=1;fillColor=#ffe6cc;strokeColor=#d79b00;fontFamily=Verdana;" vertex="1" parent="1">
          <mxGeometry x="2360" y="2610" width="160" height="80" as="geometry" />
        </mxCell>
        <mxCell id="ETMJN2ck25rzcetpwq2Y-27" value="Data Security Measures" style="ellipse;whiteSpace=wrap;html=1;fontFamily=Verdana;" vertex="1" parent="1">
          <mxGeometry x="2475" y="2760" width="100" height="70" as="geometry" />
        </mxCell>
        <mxCell id="ETMJN2ck25rzcetpwq2Y-28" value="Compliance Support Services" style="ellipse;whiteSpace=wrap;html=1;fontFamily=Verdana;" vertex="1" parent="1">
          <mxGeometry x="2250" y="2750" width="100" height="70" as="geometry" />
        </mxCell>
        <mxCell id="ETMJN2ck25rzcetpwq2Y-38" style="edgeStyle=orthogonalEdgeStyle;rounded=0;orthogonalLoop=1;jettySize=auto;html=1;exitX=0.5;exitY=0;exitDx=0;exitDy=0;entryX=1;entryY=0.5;entryDx=0;entryDy=0;fontFamily=Verdana;" edge="1" parent="1" source="ETMJN2ck25rzcetpwq2Y-31" target="ETMJN2ck25rzcetpwq2Y-36">
          <mxGeometry relative="1" as="geometry" />
        </mxCell>
        <mxCell id="ETMJN2ck25rzcetpwq2Y-40" style="edgeStyle=orthogonalEdgeStyle;rounded=0;orthogonalLoop=1;jettySize=auto;html=1;exitX=0.5;exitY=1;exitDx=0;exitDy=0;entryX=1;entryY=0.5;entryDx=0;entryDy=0;fontFamily=Verdana;" edge="1" parent="1" source="ETMJN2ck25rzcetpwq2Y-31" target="ETMJN2ck25rzcetpwq2Y-35">
          <mxGeometry relative="1" as="geometry" />
        </mxCell>
        <mxCell id="ETMJN2ck25rzcetpwq2Y-31" value="Technologies Enhancing Privacy" style="ellipse;whiteSpace=wrap;html=1;fillColor=#ffe6cc;strokeColor=#d79b00;fontFamily=Verdana;" vertex="1" parent="1">
          <mxGeometry x="2260" y="2430" width="130" height="70" as="geometry" />
        </mxCell>
        <mxCell id="ETMJN2ck25rzcetpwq2Y-35" value="Encryption" style="ellipse;whiteSpace=wrap;html=1;fontFamily=Verdana;" vertex="1" parent="1">
          <mxGeometry x="2150" y="2570" width="100" height="70" as="geometry" />
        </mxCell>
        <mxCell id="ETMJN2ck25rzcetpwq2Y-36" value="Attribute Privacy Protection" style="ellipse;whiteSpace=wrap;html=1;fontFamily=Verdana;" vertex="1" parent="1">
          <mxGeometry x="2120" y="2330" width="100" height="70" as="geometry" />
        </mxCell>
        <mxCell id="ETMJN2ck25rzcetpwq2Y-37" value="Identity Management" style="ellipse;whiteSpace=wrap;html=1;fontFamily=Verdana;" vertex="1" parent="1">
          <mxGeometry x="2050" y="2470" width="100" height="70" as="geometry" />
        </mxCell>
        <mxCell id="ETMJN2ck25rzcetpwq2Y-39" style="edgeStyle=orthogonalEdgeStyle;rounded=0;orthogonalLoop=1;jettySize=auto;html=1;exitX=0;exitY=0.5;exitDx=0;exitDy=0;entryX=0.963;entryY=0.414;entryDx=0;entryDy=0;entryPerimeter=0;fontFamily=Verdana;" edge="1" parent="1" source="ETMJN2ck25rzcetpwq2Y-31" target="ETMJN2ck25rzcetpwq2Y-37">
          <mxGeometry relative="1" as="geometry" />
        </mxCell>
        <mxCell id="ETMJN2ck25rzcetpwq2Y-46" style="edgeStyle=orthogonalEdgeStyle;rounded=0;orthogonalLoop=1;jettySize=auto;html=1;exitX=0.5;exitY=0;exitDx=0;exitDy=0;entryX=0.5;entryY=1;entryDx=0;entryDy=0;fontFamily=Verdana;" edge="1" parent="1" source="ETMJN2ck25rzcetpwq2Y-41" target="ETMJN2ck25rzcetpwq2Y-42">
          <mxGeometry relative="1" as="geometry" />
        </mxCell>
        <mxCell id="ETMJN2ck25rzcetpwq2Y-41" value="Challenges in Achieving Privacy Compliance" style="ellipse;whiteSpace=wrap;html=1;fillColor=#ffe6cc;strokeColor=#d79b00;fontFamily=Verdana;" vertex="1" parent="1">
          <mxGeometry x="2310" y="2240" width="160" height="70" as="geometry" />
        </mxCell>
        <mxCell id="ETMJN2ck25rzcetpwq2Y-42" value="Legal and Regulatory Challenges" style="ellipse;whiteSpace=wrap;html=1;fontFamily=Verdana;" vertex="1" parent="1">
          <mxGeometry x="2320" y="2090" width="100" height="70" as="geometry" />
        </mxCell>
        <mxCell id="ETMJN2ck25rzcetpwq2Y-43" value="Technical Challenges" style="ellipse;whiteSpace=wrap;html=1;fontFamily=Verdana;" vertex="1" parent="1">
          <mxGeometry x="2160" y="2130" width="100" height="70" as="geometry" />
        </mxCell>
        <mxCell id="ETMJN2ck25rzcetpwq2Y-45" style="edgeStyle=orthogonalEdgeStyle;rounded=0;orthogonalLoop=1;jettySize=auto;html=1;exitX=0;exitY=0.5;exitDx=0;exitDy=0;entryX=0.608;entryY=0.999;entryDx=0;entryDy=0;entryPerimeter=0;fontFamily=Verdana;" edge="1" parent="1" source="ETMJN2ck25rzcetpwq2Y-41" target="ETMJN2ck25rzcetpwq2Y-43">
          <mxGeometry relative="1" as="geometry" />
        </mxCell>
        <mxCell id="ETMJN2ck25rzcetpwq2Y-55" style="edgeStyle=orthogonalEdgeStyle;rounded=0;orthogonalLoop=1;jettySize=auto;html=1;exitX=0.75;exitY=0;exitDx=0;exitDy=0;entryX=0.5;entryY=1;entryDx=0;entryDy=0;fontFamily=Verdana;" edge="1" parent="1" source="ETMJN2ck25rzcetpwq2Y-1" target="ETMJN2ck25rzcetpwq2Y-2">
          <mxGeometry relative="1" as="geometry">
            <Array as="points">
              <mxPoint x="2643" y="2350" />
              <mxPoint x="2795" y="2350" />
            </Array>
          </mxGeometry>
        </mxCell>
        <mxCell id="ETMJN2ck25rzcetpwq2Y-60" value="Mindm&lt;span style=&quot;background-color: initial;&quot;&gt;ap&lt;/span&gt;" style="text;html=1;align=center;verticalAlign=middle;whiteSpace=wrap;rounded=0;fontSize=18;fontStyle=5;fontFamily=Verdana;fontColor=#0000CC;" vertex="1" parent="1">
          <mxGeometry x="2582.5" y="2917" width="60" height="30" as="geometry" />
        </mxCell>
        <mxCell id="ETMJN2ck25rzcetpwq2Y-62" value="Sartaj Singh" style="text;html=1;align=center;verticalAlign=middle;whiteSpace=wrap;rounded=0;fontSize=18;fontStyle=1;fontFamily=Verdana;fontColor=#0000FF;" vertex="1" parent="1">
          <mxGeometry x="1944" y="1886" width="141" height="30" as="geometry" />
        </mxCell>
        <mxCell id="ETMJN2ck25rzcetpwq2Y-68" style="edgeStyle=orthogonalEdgeStyle;rounded=0;orthogonalLoop=1;jettySize=auto;html=1;exitX=0.5;exitY=0;exitDx=0;exitDy=0;entryX=0.5;entryY=1;entryDx=0;entryDy=0;" edge="1" parent="1" source="ETMJN2ck25rzcetpwq2Y-63" target="ETMJN2ck25rzcetpwq2Y-66">
          <mxGeometry relative="1" as="geometry" />
        </mxCell>
        <mxCell id="ETMJN2ck25rzcetpwq2Y-73" style="edgeStyle=orthogonalEdgeStyle;rounded=0;orthogonalLoop=1;jettySize=auto;html=1;exitX=1;exitY=0;exitDx=0;exitDy=0;entryX=0.5;entryY=1;entryDx=0;entryDy=0;" edge="1" parent="1" source="ETMJN2ck25rzcetpwq2Y-63" target="ETMJN2ck25rzcetpwq2Y-67">
          <mxGeometry relative="1" as="geometry" />
        </mxCell>
        <mxCell id="ETMJN2ck25rzcetpwq2Y-63" value="Impact on Businesses" style="ellipse;whiteSpace=wrap;html=1;fillColor=#ffe6cc;strokeColor=#d79b00;fontFamily=Verdana;" vertex="1" parent="1">
          <mxGeometry x="2515" y="2150" width="160" height="70" as="geometry" />
        </mxCell>
        <mxCell id="ETMJN2ck25rzcetpwq2Y-66" value="Building Customer Trust" style="ellipse;whiteSpace=wrap;html=1;fontFamily=Verdana;" vertex="1" parent="1">
          <mxGeometry x="2430" y="1990" width="110" height="70" as="geometry" />
        </mxCell>
        <mxCell id="ETMJN2ck25rzcetpwq2Y-67" value="Competitive Advantage" style="ellipse;whiteSpace=wrap;html=1;fontFamily=Verdana;" vertex="1" parent="1">
          <mxGeometry x="2620" y="1980" width="100" height="70" as="geometry" />
        </mxCell>
      </root>
    </mxGraphModel>
  </diagram>
</mxfile>
